# xmcd CD database file
#
# Track frame offsets:
#	150
#	22320
#	42241
#	66822
#	82100
#	109977
#	139942
#	153778
#	173558
#	199591
#	216248
#	234780
#	249985
#
# Disc length: 3788 seconds
#
# Revision: 0
# Processed by: cddbd v1.5.2PL0 Copyright (c) Steve Scherf et al.
# Submitted via: CDex 2.03
#
DISCID=ae0eca0d
DTITLE=Chris Botti - Impressions
DYEAR=1900
DGENRE=Jazz
TTITLE0=Prelude No.20 in C minor 
TTITLE1=Per Te (For You) 
TTITLE2=En Aranjuez Con Tu Amor
TTITLE3=You Are Not Alone 
TTITLE4=Losing You 
TTITLE5=Tango Suite 
TTITLE6=Setembro 
TTITLE7=Oblivion 
TTITLE8=Sevdah
TTITLE9=Summertime
TTITLE10=Contigo En La Distancia
TTITLE11=Over The Rainbow 
TTITLE12=What A Wonderful World 
EXTD=
EXTT0=
EXTT1=
EXTT2=
EXTT3=
EXTT4=
EXTT5=
EXTT6=
EXTT7=
EXTT8=
EXTT9=
EXTT10=
EXTT11=
EXTT12=
PLAYORDER=
